<svg xmlns="http://www.w3.org/2000/svg" viewBox="0 0 1775.5 629.45">
  <g data-name="Layer 2">
    <g data-name="Layer 1">
      <path d="M388.21 179.76a44 44 0 1 0 44 44 44 44 0 0 0-44-44zm0 68.76a24.81 24.81 0 1 1 24.8-24.8 24.84 24.84 0 0 1-24.8 24.8z"/>
      <path d="M518.74 115.74L344.65 15.23a113.74 113.74 0 0 0-113.71 0L56.85 115.74A113.72 113.72 0 0 0 0 214.22v201a113.7 113.7 0 0 0 56.85 98.47l174.09 100.53a113.74 113.74 0 0 0 113.71 0l174.09-100.51a113.7 113.7 0 0 0 56.85-98.47v-201a113.72 113.72 0 0 0-56.85-98.5zM327.15 583.91a78.74 78.74 0 0 1-78.71 0L74.35 483.4A78.69 78.69 0 0 1 35 415.24v-201a78.69 78.69 0 0 1 39.35-68.17l12-6.92 65.92 65.92a43.93 43.93 0 0 0 58.45 58.44l15.2 15.2h-52.51a30.07 30.07 0 0 0-30 30.09v140.62h19.15v-28.88h48.86v28.88h19.15V337.47h54.1l59.94 59.93v52h19.14v-32.85l17 17a26.74 26.74 0 0 0 14 14l61.69 61.68zM167.49 220.26l28 28a24.47 24.47 0 0 1-3.45.24 24.82 24.82 0 0 1-24.56-28.26zm28.45-21a24.87 24.87 0 0 1 20.61 20.62zm112.87 112.83l-14.25-14.26h4.83a10.26 10.26 0 0 1 10.24 10.25 10.12 10.12 0 0 1-.82 4.01zm-43.26 6.23h-65v19.15h10.86v63.93h-48.83v-92.62a10.9 10.9 0 0 1 10.83-10.95h71.65zm147.09 97.59l-14.86-14.86v-77.84h-19.15v58.7l-14.86-14.86v-44.78a24.44 24.44 0 1 1 48.87 0zm117.41 38.68a78.74 78.74 0 0 1-28.81 28.81l-13.39 7.73-58-58a26.3 26.3 0 0 0 1.95-10V322.27a43.58 43.58 0 1 0-87.15 0v25.63L322.69 326a29.37 29.37 0 0 0-23.3-47.27h-24l-41.52-41.52a43.93 43.93 0 0 0-55.29-55.29L117.73 121l130.71-75.46a78.74 78.74 0 0 1 78.71 0l174.09 100.51a78.69 78.69 0 0 1 39.35 68.17v201a78.72 78.72 0 0 1-10.54 39.37zM665.73 165.25h47.43c24.21 0 37.42 12.81 37.42 32.22 0 19.21-9.61 31.61-29 36.42l-.2 1c14.61 2.8 22.81 11.8 22.81 26.61 0 26.21-18.21 43.42-47.82 43.42h-54zm24.21 118.86c13.21 0 21.22-4.2 23-15l.8-4.81a58.5 58.5 0 0 0 1-7c0-9.21-5-13-17-13h-16.4l-6.6 39.82zm6.21-59.63c14 0 21-3.2 23-15.21l.8-4.8a50.16 50.16 0 0 0 .6-6.2c0-9-6-12.21-16.61-12.21h-12.8l-6.41 38.42zM763.26 304.92l23.21-139.67h29.62l-19.21 115.26h60.43l-4 24.41zM955.76 304.92l-3.41-33.81h-39.22l-13.8 33.81h-31l61.43-139.67H971l15.21 139.67zM947 194.27h-1.8l-22 52.82h28zM1088.24 242.69l8-39.42h-1.8l-38.22 71.84-14-71.84h-1.8l-5 39.42-10.42 62.23h-25.6l23.41-139.67h33.82l9.6 47.43h1.8l25.21-47.43h33.62l-23.41 139.67h-25.61zM1130.9 304.92l23.41-139.67h89.25l-4 24.41h-60l-5.41 32.42h57.23l-4 24.41h-57.43l-5.6 34h59.83l-4 24.41zM1240.5 257.9l4.6-28h63.43l-4.6 28zM1311.81 304.92l23.41-139.67h92.45l-4 24.41h-63.23l-5.44 32.42h56.43l-4 24.41H1351l-9.8 58.43zM1455 304.92h-29.21l23.41-139.67h50.42c24.82 0 38 15 38 37.22 0 24.61-12.6 41.62-33.41 47.43l19 55h-31.22l-15.41-52h-12.8zm28.62-75.24c14.4 0 20-4.4 21.81-16l.8-4.81a40.4 40.4 0 0 0 .6-6.6c0-9.2-6-13.21-15.81-13.21h-16.61l-6.8 40.62zM1545.42 304.92l23.42-139.67h89.24l-4 24.41h-60l-5.4 32.42h57.23l-4 24.41h-57.43l-5.6 34h59.83l-4 24.41zM1662.84 304.92l23.41-139.67h89.25l-4 24.41h-60l-5.41 32.42h57.23l-4 24.41h-57.43l-5.6 34h59.83l-4 24.41zM718.17 461.8h-99.85l4.4-26 77.44-89.25h-60.83l4-24.41h95.85l-4.2 26-77.44 89.25h64.64zM742 411.58c0-47.43 18.21-91.85 62.63-91.85 33.82 0 48.63 20 48.63 52.62 0 47.43-18.21 91.85-62.63 91.85-33.86 0-48.63-20.01-48.63-52.62zm75.84-7.41l4-24a85.79 85.79 0 0 0 1.2-14.41c0-13.81-5.8-22-18.41-22-16.8 0-23.41 13.21-27.21 36l-4 24a85.79 85.79 0 0 0-1.2 14.41c0 13.81 5.8 22 18.41 22 16.77.02 23.37-13.17 27.17-36zM905.1 368.15h-2l-15.61 93.65h-25.81l23.21-139.67h35.62l16.21 93.65h2l15.61-93.65h25.81L956.93 461.8h-35.62zM986.26 461.8l23.41-139.67h89.25l-4 24.41h-60l-5.44 32.46h57.23l-4 24.41h-57.43l-5.6 34h59.83l-4 24.41z"/>
    </g>
  </g>
</svg>
